<?xml version="1.0" standalone="no"?><!DOCTYPE svg PUBLIC "-//W3C//DTD SVG 1.1//EN" "http://www.w3.org/Graphics/SVG/1.1/DTD/svg11.dtd"><svg t="1628683865370" class="icon" viewBox="0 0 1024 1024" version="1.1" xmlns="http://www.w3.org/2000/svg" p-id="2110" xmlns:xlink="http://www.w3.org/1999/xlink" width="200" height="200"><defs><style type="text/css"></style></defs><path d="M512 0.448C300.352 0.448 128.192 173.376 128.192 385.92c0 200.064 316.864 562.56 352.96 603.264l30.784 34.688 30.912-34.688c36.096-40.704 352.96-403.2 352.96-603.264C895.808 173.44 723.648 0.448 512 0.448z m0 903.104C405.376 777.408 208.896 517.44 208.896 385.92c0-170.048 135.872-308.416 302.976-308.416 167.104 0 303.04 138.368 303.04 308.416 0 131.328-196.544 391.424-303.04 517.632z" fill="#000000" p-id="2111"></path><path d="M376.64 376.32c0 69.632 59.2 126.08 132.16 126.08 73.024 0 132.224-56.448 132.224-126.08 0-69.696-59.2-126.144-132.224-126.144-72.96 0-132.16 56.448-132.16 126.08z" fill="#000000" p-id="2112"></path></svg>