<?xml version="1.0" encoding="UTF-8" ?>
<!DOCTYPE svg PUBLIC "-//W3C//DTD SVG 1.1//EN" "http://www.w3.org/Graphics/SVG/1.1/DTD/svg11.dtd">
<svg width="102pt" height="102pt" viewBox="0 0 102 102" version="1.1" xmlns="http://www.w3.org/2000/svg">
<g id="#3875ffff">
<path fill="#ffa833 " opacity="1.00" d=" M 18.49 25.41 C 24.68 12.26 39.79 4.13 54.17 6.34 C 69.16 8.13 81.91 20.90 83.68 35.89 C 85.03 44.03 82.04 52.05 78.21 59.09 C 70.56 72.78 60.21 84.74 49.43 96.03 C 37.58 83.10 25.49 69.79 18.16 53.66 C 13.88 44.82 14.09 34.16 18.49 25.41 M 46.34 27.41 C 39.90 28.83 35.24 35.49 36.13 42.03 C 36.75 48.84 43.22 54.39 50.04 53.95 C 57.63 53.87 63.99 46.40 62.86 38.89 C 62.16 31.15 53.85 25.35 46.34 27.41 Z" />
</g>
<g id="#ffffffff">
</g>
</svg>
