<?xml version="1.0" encoding="UTF-8"?><!DOCTYPE svg PUBLIC "-//W3C//DTD SVG 1.1//EN" "http://www.w3.org/Graphics/SVG/1.1/DTD/svg11.dtd"><svg version="1.1" xmlns="http://www.w3.org/2000/svg" width="160" height="160" viewBox="0 0 160 160"><g transform="scale(1,1) rotate(0,80,80)" fill-opacity="1"><g><circle cx="80" cy="80" r="80" fill="#FFFFFF" display="none"/></g><g><g id="ringback" display="none"><path fill="red" d="M80,0C35.817,0,0,35.817,0,80c0,44.184,35.817,80,80,80c44.184,0,80-35.816,80-80C160,35.817,124.184,0,80,0z M80,155.5c-41.697,0-75.5-33.804-75.5-75.5C4.5,38.303,38.303,4.5,80,4.5c41.696,0,75.5,33.803,75.5,75.5C155.5,121.696,121.696,155.5,80,155.5z"/></g><g id="ringfore" display="inline" transform="rotate(323,80,80)"><path fill="red" d="M39.5,16.2v-5.3c-5.7,3.4-11.1,7.6-16,12.5c-5,5-9.1,10.3-12.5,16h5.3c2.9-4.5,6.3-8.8,10.3-12.8S34.9,19.2,39.5,16.2z"/><path fill="red" d="M15.6,40.4h-5.2c-2.8,5-5.1,10.3-6.7,15.8l3.2,5.5C8.7,54.1,11.6,47,15.6,40.4z"/><path fill="red" d="M97.4,2C91.9,0.8,86.1,0.1,80,0C65.2,0.3,52.1,3.8,40.5,10.4v5.2C52,8.5,65.1,4.8,80,4.5c7.3,0.1,14.1,1.1,20.5,2.9L97.4,2z"/><path fill="red" d="M129.3,22.8l2.3-3.9c-9.5-8.2-20.5-13.7-32.8-16.6l3.1,5.5C112.1,10.7,121.3,15.7,129.3,22.8z"/><path fill="red" d="M132.3,19.5l-2.2,3.9c1.1,1,2.2,2.1,3.3,3.2c9,9,15.3,19.4,18.8,31.4l5.5,3.1c-3.4-14.5-10.5-27-21.1-37.7C135.2,22.1,133.8,20.8,132.3,19.5z"/><path fill="red" d="M158,62.4l-5.4-3.1c1.8,6.5,2.8,13.4,2.9,20.7c-0.1,6-0.8,11.7-2,17.1l3.2,5.6c2-7.1,3.1-14.7,3.3-22.7C159.9,73.8,159.2,68,158,62.4z"/><path fill="red" d="M156.3,104l-3.1-5.5c-3.4,13.4-9.9,25-19.8,34.9c-4,4-8.3,7.4-12.9,10.4v5.2c5.8-3.4,11.1-7.5,16.1-12.5C146,127.2,152.6,116.3,156.3,104z"/><path fill="red" d="M119.5,149.6v-5.2c-11.4,7-24.6,10.7-39.5,11.1c-7.3-0.2-14.2-1.2-20.7-3l3.1,5.4c5.6,1.2,11.5,1.9,17.6,2.1C94.8,159.6,108,156.2,119.5,149.6z"/><path fill="red" d="M6.5,63.1l-3.2-5.6C1.3,64.5,0.2,72,0,80c0.4,14.7,3.8,27.9,10.4,39.4h5.2C8.6,108,4.9,94.9,4.5,80C4.7,74.1,5.3,68.5,6.5,63.1z"/><path fill="red" d="M16.2,120.4H11c3.3,5.8,7.5,11.2,12.5,16.1c4.9,5,10.2,9.1,16,12.5l-0.1-5.3c-4.5-2.9-8.8-6.3-12.8-10.3C22.6,129.3,19.1,125,16.2,120.4z"/><path fill="red" d="M40.4,144.4l0.1,5.2c6.3,3.6,13.2,6.3,20.6,8l-3.2-5.5C51.7,150.3,45.9,147.7,40.4,144.4z"/></g><g id="centersign" transform="translate(0,0) scale(1,1)"><g id="signstar" display="inline"><polygon fill="red" points="79.5,58.5 84.633,73.722 100.563,73.722 87.818,83.277 92.42,98.5 79.5,89.475 66.58,98.5 71.182,83.277 58.438,73.722 74.367,73.722"/></g><g id="signparty" display="none"><path fill="red" d="M80.448,58.475c10.11,3.89,16.197,16.188,10.938,26.069L78.592,71.51l4.953-4.941l-3.097-3.153c-1.651,1.683-4.333,1.999-6.19,1.261l-9.699,9.985l5.572,5.571l3.61-3.784l12.792,13.035c-6.292,3.574-14.958,2.418-21.354-4.311l-2.992,3.156c0.826,1.258,1.65,2.414,2.579,3.466c0,0.104-0.309,0.316-0.309,0.316c-0.207,0-0.413-0.105-0.517-0.105c-1.65,0-2.993,1.47-2.993,3.153c0,1.682,1.342,3.047,2.993,3.047s3.095-1.365,3.095-3.047c0-0.209-0.103-0.421-0.103-0.525l0.412-0.525c7.429,5.045,15.477,5.677,24.142,0.423l3.508,3.675l4.953-4.938l-3.612-3.682C106.654,73.717,92.831,58.054,80.448,58.475"/></g></g></g><g><g transform="rotate(-78.3,80,80)"><g transform="translate(72.2,7) scale(0.015234375,0.0228515625)"><g transform="scale(1,-1) translate(0,-820)"><path d="M510 -168Q480 -180 464 -180L472 20V716L600 676Q596 660 560 636V36L568 -132Q540 -156 510 -168V-168V-168ZM128 300L224 292H800Q832 348 836 348Q840 348 884 312Q928 276 912 260H192L160 244L128 300V300ZM844 758Q880 716 872 700H256L208 692L176 740L280 732H744Q792 796 800 798Q808 800 844 758V758V758ZM378 350Q360 344 344 354Q328 364 324 390Q320 416 308 460Q296 504 262 554Q228 604 234 608Q240 612 288 588Q336 564 372 528Q408 492 420 460Q432 428 428 408Q424 388 410 372Q396 356 378 350V350V350ZM532 296Q680 500 744 628Q752 628 856 556Q856 540 808 532Q752 464 700 412Q648 360 560 284L532 296V296V296V297V296Z" fill="red"/></g></g></g><g transform="rotate(-52.2,80,80)"><g transform="translate(72.2,7) scale(0.015234375,0.0228515625)"><g transform="scale(1,-1) translate(0,-820)"><path d="M510 -168Q480 -180 464 -180L472 20V716L600 676Q596 660 560 636V36L568 -132Q540 -156 510 -168V-168V-168ZM128 300L224 292H800Q832 348 836 348Q840 348 884 312Q928 276 912 260H192L160 244L128 300V300ZM844 758Q880 716 872 700H256L208 692L176 740L280 732H744Q792 796 800 798Q808 800 844 758V758V758ZM378 350Q360 344 344 354Q328 364 324 390Q320 416 308 460Q296 504 262 554Q228 604 234 608Q240 612 288 588Q336 564 372 528Q408 492 420 460Q432 428 428 408Q424 388 410 372Q396 356 378 350V350V350ZM532 296Q680 500 744 628Q752 628 856 556Q856 540 808 532Q752 464 700 412Q648 360 560 284L532 296V296V296V297V296Z" fill="red"/></g></g></g><g transform="rotate(-26.1,80,80)"><g transform="translate(72.2,7) scale(0.015234375,0.0228515625)"><g transform="scale(1,-1) translate(0,-820)"><path d="M254 576Q236 572 226 584Q216 596 208 632Q200 668 176 700Q152 732 156 740Q160 748 194 740Q228 732 248 722Q268 712 284 694Q300 676 302 648Q304 620 288 600Q272 580 254 576V576V576ZM200 392Q184 388 174 402Q164 416 158 448Q152 480 134 506Q116 532 118 538Q120 544 156 536Q192 528 214 508Q236 488 242 462Q248 436 232 416Q216 396 200 392V392V392ZM256 72Q264 12 270 -20Q276 -52 268 -74Q260 -96 238 -104Q216 -112 196 -102Q176 -92 174 -64Q172 -36 178 4Q184 44 180 76Q176 108 168 120Q160 132 140 140Q120 148 120 164Q160 172 170 180Q180 188 190 202Q200 216 368 628V584Q252 184 250 158Q248 132 256 72V72V72ZM440 478Q420 472 400 482Q380 492 384 518Q388 544 406 574Q424 604 430 644Q436 684 444 684Q452 684 464 650Q476 616 480 572Q484 528 472 506Q460 484 440 478V478V478ZM522 470Q544 524 552 630Q560 736 552 804Q560 804 680 772Q680 764 652 740Q632 616 622 544Q612 472 560 398Q508 324 418 280Q328 236 328 252Q432 336 466 376Q500 416 522 470V470V470ZM600 524L604 548Q664 612 688 640Q712 668 752 724Q760 724 832 652Q832 644 792 636Q728 592 692 574Q656 556 600 524V524V524ZM788 300Q772 308 762 328Q752 348 736 376Q720 404 704 428Q688 452 650 482Q612 512 618 518Q624 524 640 520Q656 516 696 500Q736 484 768 460Q800 436 822 410Q844 384 846 352Q848 320 826 306Q804 292 788 300V300V300ZM390 62Q368 68 364 90Q360 112 372 130Q384 148 402 172Q420 196 426 232Q432 268 440 268Q448 268 458 244Q468 220 470 184Q472 148 464 118Q456 88 434 72Q412 56 390 62V62V62ZM598 90Q564 -8 510 -60Q456 -112 370 -150Q284 -188 280 -172Q400 -88 444 -30Q488 28 514 100Q540 172 546 240Q552 308 552 380Q560 380 616 356Q672 332 672 328Q672 324 648 300Q632 188 598 90V90V90ZM768 268Q776 268 840 188Q840 180 792 172L672 124L664 148L768 268V268ZM760 10Q800 -36 912 -116Q912 -132 880 -134Q848 -136 820 -150Q792 -164 776 -164Q724 -96 702 -52Q680 -8 658 50Q636 108 596 236L620 240Q656 164 688 110Q720 56 760 10V10V10V11V10Z" fill="red"/></g></g></g><g transform="rotate(0,80,80)"><g transform="translate(72.2,7) scale(0.015234375,0.0228515625)"><g transform="scale(1,-1) translate(0,-820)"><path d="M254 576Q236 572 226 584Q216 596 208 632Q200 668 176 700Q152 732 156 740Q160 748 194 740Q228 732 248 722Q268 712 284 694Q300 676 302 648Q304 620 288 600Q272 580 254 576V576V576ZM200 392Q184 388 174 402Q164 416 158 448Q152 480 134 506Q116 532 118 538Q120 544 156 536Q192 528 214 508Q236 488 242 462Q248 436 232 416Q216 396 200 392V392V392ZM256 72Q264 12 270 -20Q276 -52 268 -74Q260 -96 238 -104Q216 -112 196 -102Q176 -92 174 -64Q172 -36 178 4Q184 44 180 76Q176 108 168 120Q160 132 140 140Q120 148 120 164Q160 172 170 180Q180 188 190 202Q200 216 368 628V584Q252 184 250 158Q248 132 256 72V72V72ZM440 478Q420 472 400 482Q380 492 384 518Q388 544 406 574Q424 604 430 644Q436 684 444 684Q452 684 464 650Q476 616 480 572Q484 528 472 506Q460 484 440 478V478V478ZM522 470Q544 524 552 630Q560 736 552 804Q560 804 680 772Q680 764 652 740Q632 616 622 544Q612 472 560 398Q508 324 418 280Q328 236 328 252Q432 336 466 376Q500 416 522 470V470V470ZM600 524L604 548Q664 612 688 640Q712 668 752 724Q760 724 832 652Q832 644 792 636Q728 592 692 574Q656 556 600 524V524V524ZM788 300Q772 308 762 328Q752 348 736 376Q720 404 704 428Q688 452 650 482Q612 512 618 518Q624 524 640 520Q656 516 696 500Q736 484 768 460Q800 436 822 410Q844 384 846 352Q848 320 826 306Q804 292 788 300V300V300ZM390 62Q368 68 364 90Q360 112 372 130Q384 148 402 172Q420 196 426 232Q432 268 440 268Q448 268 458 244Q468 220 470 184Q472 148 464 118Q456 88 434 72Q412 56 390 62V62V62ZM598 90Q564 -8 510 -60Q456 -112 370 -150Q284 -188 280 -172Q400 -88 444 -30Q488 28 514 100Q540 172 546 240Q552 308 552 380Q560 380 616 356Q672 332 672 328Q672 324 648 300Q632 188 598 90V90V90ZM768 268Q776 268 840 188Q840 180 792 172L672 124L664 148L768 268V268ZM760 10Q800 -36 912 -116Q912 -132 880 -134Q848 -136 820 -150Q792 -164 776 -164Q724 -96 702 -52Q680 -8 658 50Q636 108 596 236L620 240Q656 164 688 110Q720 56 760 10V10V10V11V10Z" fill="red"/></g></g></g><g transform="rotate(26.099999999999994,80,80)"><g transform="translate(72.2,7) scale(0.015234375,0.0228515625)"><g transform="scale(1,-1) translate(0,-820)"><path d="M878 534Q912 492 904 476H192L152 460L120 516L212 508H776Q824 576 834 576Q844 576 878 534V534V534ZM608 -164Q568 -180 552 -180Q532 -120 492 -106Q452 -92 452 -68Q500 -76 534 -74Q568 -72 572 -44V728L556 804Q564 804 704 764Q704 748 664 720V-88Q648 -148 608 -164V-164V-164ZM520 216Q464 160 384 90Q304 20 210 -32Q116 -84 112 -60Q272 76 340 152Q408 228 462 306Q516 384 580 492H616V328Q576 272 520 216V216V216V217V216Z" fill="red"/></g></g></g><g transform="rotate(52.2,80,80)"><g transform="translate(72.2,7) scale(0.015234375,0.0228515625)"><g transform="scale(1,-1) translate(0,-820)"><path d="M744 504L752 388Q720 372 698 368Q676 364 656 364V724H384L376 720V380Q360 372 324 364Q288 356 280 356L288 504V724L280 796Q288 796 392 756H648Q688 796 696 796Q704 796 740 760Q776 724 776 716Q776 708 744 692V504V504ZM696 568H328V600H696V568V568ZM336 436H696V404H336V436V436ZM120 260L96 308L208 300H792Q840 364 848 364Q856 364 884 324Q912 284 904 268H184L120 260V260ZM496 -76V284H620L584 236V-76H496V-76ZM806 160Q832 124 824 108H536V140H720Q764 196 772 196Q780 196 806 160V160V160ZM172 -142Q120 -180 112 -172Q172 -88 196 -42Q220 4 242 74Q264 144 280 244Q288 244 392 204Q392 188 368 172Q344 84 322 36Q300 -12 262 -58Q224 -104 172 -142V-142V-142ZM844 -38Q916 -28 918 -34Q920 -40 892 -68Q864 -96 856 -118Q848 -140 840 -140Q604 -144 542 -136Q480 -128 440 -108Q400 -88 372 -44Q344 0 320 60L328 76Q360 24 400 -2Q440 -28 484 -40Q528 -52 650 -50Q772 -48 844 -38V-38V-38V-37V-38Z" fill="red"/></g></g></g><g transform="rotate(78.3,80,80)"><g transform="translate(72.2,7) scale(0.015234375,0.0228515625)"><g transform="scale(1,-1) translate(0,-820)"><path d="M860 696Q888 660 880 644H200L160 628L128 684L228 676H776Q816 732 824 732Q832 732 860 696V696V696ZM456 524L464 740L456 812Q472 812 584 772Q584 756 548 732L540 524H456V524ZM384 500L372 492V76H288V480L280 572Q288 572 400 532H648Q680 572 688 572Q696 572 736 544Q776 516 776 508Q776 500 744 476V76H660V500H384V500ZM360 428H672V396H360V428V428ZM672 288H360V320H672V288V288ZM672 176H360V208H672V176V176ZM876 112Q904 76 896 60H168L136 44L104 100L208 92H792Q832 148 840 148Q848 148 876 112V112V112ZM232 -164Q164 -192 160 -180Q248 -108 284 -70Q320 -32 368 36Q376 36 464 -28Q464 -44 416 -52Q300 -136 232 -164V-164V-164ZM802 -168Q784 -192 758 -188Q732 -184 722 -160Q712 -136 684 -98Q656 -60 604 -28Q552 4 556 12Q560 20 628 4Q696 -12 732 -32Q768 -52 790 -76Q812 -100 816 -122Q820 -144 802 -168V-168V-168V-167V-168Z" fill="red"/></g></g></g></g><g><g transform="translate(55.03999999999999,118.832) scale(0.0121875,0.01828125)"><g transform="scale(1,-1) translate(0,-820)"><path d="M852 722Q888 684 880 668H224L184 652L144 708L240 700H752Q800 760 808 760Q816 760 852 722V722V722ZM480 -100V676L604 644Q604 628 572 604V-100H480V-100ZM800 388Q832 348 824 332H536V364H704Q752 428 760 428Q768 428 800 388V388V388ZM248 -100V392L240 476Q248 476 364 428Q364 412 332 388V-100H248V-100ZM888 -124H176L136 -132L104 -84L208 -92H760Q816 -32 824 -32Q832 -32 864 -70Q896 -108 888 -124V-124V-124V-123V-124Z" fill="red"/></g></g><g transform="translate(67.52,118.832) scale(0.0121875,0.01828125)"><g transform="scale(1,-1) translate(0,-820)"><path d="M456 812Q464 812 584 764Q584 748 552 728V556H464V736L456 812V812ZM320 632Q312 660 306 680Q300 700 282 724Q264 748 264 756Q264 764 298 756Q332 748 354 736Q376 724 388 712Q400 700 408 684Q416 668 412 648Q408 628 388 610Q368 592 348 598Q328 604 320 632V632V632ZM642 666Q664 704 704 772Q716 772 792 692Q792 684 760 684L604 572H576Q620 628 642 666V666V666ZM130 450Q116 464 116 480Q116 496 130 512Q144 528 160 546Q176 564 186 596Q196 628 206 628Q216 628 224 604Q232 580 236 560Q240 540 236 522Q232 504 224 488Q216 472 204 460Q192 448 168 442Q144 436 130 450V450V450ZM208 580H784Q812 624 818 624Q824 624 872 590Q920 556 920 544Q920 532 892 532L788 460H768L800 548H208V580V580ZM428 436L384 400V276Q364 260 340 256Q316 252 296 252L304 328V432L296 492Q304 492 428 436V436V436ZM368 460H624Q652 500 658 500Q664 500 708 472Q752 444 752 438Q752 432 720 412V340L728 284Q696 268 676 264Q656 260 640 260V428H368V460V460ZM368 332H672V300H368V332V332ZM356 172L320 140V-68Q292 -80 270 -86Q248 -92 228 -92L236 20V164L228 228Q236 228 356 172V172V172ZM288 188H696Q720 232 728 232Q736 232 780 206Q824 180 824 172Q824 164 796 140V-40Q776 -72 748 -84Q720 -96 688 -96Q680 -44 644 -30Q608 -16 608 0Q704 -4 712 12V156H288V188V188ZM510 -174Q484 -180 460 -180L472 -56V228L464 292Q476 292 588 256Q588 244 556 216V-44L564 -152Q536 -168 510 -174V-174V-174V-173V-174Z" fill="red"/></g></g><g transform="translate(80,118.832) scale(0.0121875,0.01828125)"><g transform="scale(1,-1) translate(0,-820)"><path d="M218 130Q228 196 228 688L220 772Q228 772 360 700L312 660Q312 232 308 168Q304 104 288 48Q272 -8 240 -50Q208 -92 166 -124Q124 -156 120 -148Q180 -56 194 4Q208 64 218 130V130V130ZM686 -100Q636 -88 636 -72Q732 -72 744 -68Q756 -64 764 -56V692H272V724H752Q792 764 800 764Q808 764 844 732Q880 700 880 692Q880 684 848 668V-108Q836 -140 822 -150Q808 -160 788 -166Q768 -172 760 -172Q736 -112 686 -100V-100V-100ZM496 708H576V-76Q504 -100 488 -100L496 84V708V708ZM288 484H800V452H296L288 484V484ZM288 260H800V228H288V260V260V261V260Z" fill="red"/></g></g><g transform="translate(92.48,118.832) scale(0.0121875,0.01828125)"><g transform="scale(1,-1) translate(0,-820)"><path d="M784 508V252L792 136Q760 116 742 112Q724 108 696 108V532H284L272 516V100Q244 88 220 82Q196 76 176 76L184 228V540L176 620Q184 620 304 564H688Q716 620 724 620Q732 620 778 584Q824 548 824 540Q824 532 784 508V508V508ZM232 380H728V348H232V380V380ZM240 180H728V148H240V180V180ZM840 84Q856 84 852 28Q848 -28 888 -68Q888 -80 878 -102Q868 -124 852 -136Q836 -148 808 -156H512Q468 -156 458 -136Q448 -116 444 -80V732L436 796Q444 796 560 764Q560 748 532 716V-36Q536 -64 556 -68H744Q772 -64 784 -50Q796 -36 840 84V84V84V85V84Z" fill="red"/></g></g></g></g></svg>