<svg xmlns="http://www.w3.org/2000/svg" width="381.333" height="381.333" viewBox="0 0 381.333 381.333"><defs><clipPath id="a"><path d="M0 841.89h595.28V0H0z"/></clipPath></defs><g clip-path="url(#a)" transform="matrix(1.33333 0 0 -1.33333 -200.06 669.689)"><path d="M436.045 359.267c0-78.977-64.023-143-143-143s-143 64.023-143 143 64.023 143 143 143 143-64.023 143-143" fill="#56cde8"/><path d="M345.65 243.242a6.07 6.07 0 1 0-12.139.28 6.07 6.07 0 0 0 12.138-.28" fill="#e55456"/><path d="M387.92 267.517a6.069 6.069 0 1 0-12.136.278 6.072 6.072 0 0 0 6.209 5.929 6.068 6.068 0 0 0 5.927-6.207" fill="#ffd762"/><path d="M376.338 254.638a6.07 6.07 0 1 0-12.135.28 6.07 6.07 0 0 0 12.135-.28" fill="#e55456"/><path d="M362.494 244.912a6.067 6.067 0 0 0-6.205-5.93 6.067 6.067 0 0 0-5.928 6.207 6.068 6.068 0 1 0 12.133-.277" fill="#ffd762"/><path d="M389.626 285.065a6.07 6.07 0 0 0-12.135.277 6.066 6.066 0 0 0 6.206 5.927 6.067 6.067 0 0 0 5.929-6.204" fill="#e55456"/><path d="M386.854 302.096a6.068 6.068 0 0 0-6.207-5.93 6.07 6.07 0 1 0 6.207 5.929" fill="#ffd762"/><path d="M375.781 316.654a6.07 6.07 0 1 0-12.136.283 6.07 6.07 0 0 0 12.136-.283" fill="#e55456"/><path d="M226.62 412.865l134.727-86.97c.002.04 1.431-.124 1.195 1.022-3.939 19.052-60.737 158.831-63.679 158.05-2.423-.644-21.639-12.594-35.452-21.798-15.055-10.03-35.957-40.84-38.91-44.087-2.95-3.244 2.12-6.217 2.12-6.217" fill="#ffd762"/><path d="M225.164 416.652c-6.307 5.045-11.57 8.74-15.249 11.202-8.996 6.023-12.172 7.553-15.47 12.386-.778 1.141-3.863 2.885-2.653 3.127.975.195-1.146-1.082-.975-2.435-.186.895-.3 1.257-.365 1.25-.254-.032.374-7.613.374-7.613 2.42-23.783 1.638-79.449 7.105-80.447 3.615-.66 11.025 11.566 27.233 62.53" fill="#ffd762"/><path d="M228.726 417.395c-.237-.079-2.542.813-4.916-1.685-3.523-3.708-15.158-25.694-21.031-42.018-2.771-7.704-4.912-19.559-4.91-19.559.964-.133 16.604-3.206 37.874-7.289 47.507-9.119 122.332-21.553 126.038-20.917 2.128.365-132.98 91.493-133.055 91.468" fill="#ff485f"/><path d="M193.75 439.015l29.573-21.058c1.706-1.082 3.924-2.195 6 1.826 22.147 42.884 64.178 59.716 65.263 61.058.29.359 4.852 3.43 4.625 4.009-.166.423-2.058-.421-2.59-.655-31.321-13.798-64.145-23.905-95.996-36.43-2.15-.846-4.145-2.046-6.25-3-2.626-1.19-3.612-1.745-3.984-2.592-.453-1.03 2.284-2.34 3.359-3.158" fill="#ff485f"/></g></svg>